<svg width="24" height="24" viewBox="0 0 24 24" fill="none" xmlns="http://www.w3.org/2000/svg">
<g id="ic:round-call">
<path id="Vector" d="M19.23 15.26L16.69 14.97C16.3914 14.9349 16.0886 14.968 15.8046 15.0667C15.5206 15.1654 15.2626 15.3272 15.05 15.54L13.21 17.38C10.3712 15.9362 8.06382 13.6288 6.62004 10.79L8.47004 8.94C8.90004 8.51 9.11004 7.91 9.04004 7.3L8.75004 4.78C8.69335 4.29217 8.45923 3.84223 8.09228 3.51584C7.72532 3.18945 7.25115 3.00941 6.76004 3.01H5.03004C3.90004 3.01 2.96004 3.95 3.03004 5.08C3.56004 13.62 10.39 20.44 18.92 20.97C20.05 21.04 20.99 20.1 20.99 18.97V17.24C21 16.23 20.24 15.38 19.23 15.26Z" fill="white"/>
</g>
</svg>
