<svg width="28" height="28" viewBox="0 0 28 28" fill="none" xmlns="http://www.w3.org/2000/svg">
<g id="uil:mouse-alt">
<path id="Vector" d="M13.9997 7C13.6903 7 13.3935 7.12291 13.1747 7.3417C12.9559 7.5605 12.833 7.85724 12.833 8.16666V10.5C12.833 10.8094 12.9559 11.1062 13.1747 11.325C13.3935 11.5437 13.6903 11.6667 13.9997 11.6667C14.3091 11.6667 14.6058 11.5437 14.8246 11.325C15.0434 11.1062 15.1663 10.8094 15.1663 10.5V8.16666C15.1663 7.85724 15.0434 7.5605 14.8246 7.3417C14.6058 7.12291 14.3091 7 13.9997 7ZM13.9997 2.33333C11.8337 2.33333 9.75652 3.19374 8.22497 4.72529C6.69342 6.25684 5.83301 8.33406 5.83301 10.5V17.5C5.83301 19.6659 6.69342 21.7432 8.22497 23.2747C9.75652 24.8062 11.8337 25.6667 13.9997 25.6667C16.1656 25.6667 18.2428 24.8062 19.7744 23.2747C21.3059 21.7432 22.1663 19.6659 22.1663 17.5V10.5C22.1663 8.33406 21.3059 6.25684 19.7744 4.72529C18.2428 3.19374 16.1656 2.33333 13.9997 2.33333ZM19.833 17.5C19.833 19.0471 19.2184 20.5308 18.1245 21.6248C17.0305 22.7187 15.5468 23.3333 13.9997 23.3333C12.4526 23.3333 10.9688 22.7187 9.87489 21.6248C8.78092 20.5308 8.16634 19.0471 8.16634 17.5V10.5C8.16634 8.9529 8.78092 7.46917 9.87489 6.37521C10.9688 5.28124 12.4526 4.66666 13.9997 4.66666C15.5468 4.66666 17.0305 5.28124 18.1245 6.37521C19.2184 7.46917 19.833 8.9529 19.833 10.5V17.5Z" fill="#32495E"/>
</g>
</svg>
